<?xml version="1.0" encoding="iso-8859-1"?>
<!-- Generator: Adobe Illustrator 19.0.0, SVG Export Plug-In . SVG Version: 6.00 Build 0)  -->
<svg version="1.1" id="Capa_1" xmlns="http://www.w3.org/2000/svg" xmlns:xlink="http://www.w3.org/1999/xlink" x="0px" y="0px"
	 viewBox="0 0 512 512" style="enable-background:new 0 0 512 512;" xml:space="preserve">
<path style="fill:#5A5A5A;" d="M512,197v270c0,24.901-21.099,45-46,45H46c-24.901,0-46-20.099-46-45V197c0-24.901,21.099-45,46-45
	h420C490.901,152,512,172.099,512,197z"/>
<path style="fill:#444444;" d="M512,197v270c0,24.901-21.099,45-46,45H256V152h210C490.901,152,512,172.099,512,197z"/>
<path style="fill:#E7E7E7;" d="M451,227v210c0,8.401-6.599,15-15,15H76c-8.401,0-15-6.599-15-15V227c0-8.401,6.599-15,15-15h360
	C444.401,212,451,218.599,451,227z"/>
<path style="fill:#D3D3D8;" d="M451,227v210c0,8.401-6.599,15-15,15H256V212h180C444.401,212,451,218.599,451,227z"/>
<rect x="91" y="242" style="fill:#00ABE9;" width="330" height="180"/>
<rect x="256" y="242" style="fill:#0095FF;" width="165" height="180"/>
<path style="fill:#E7E7E7;" d="M446.499,387.499c-5.7,6-15.298,6-20.999,0L361,323.301L277.301,407l19.199,19.501
	c6,5.7,6,15.298,0,20.999c-5.7,6-15.298,6-20.999,0L256,428l-75-74.7l-94.501,94.199c-5.7,6-15.298,6-20.999,0
	c-6-5.7-6-15.298,0-20.999l94.199-94.5L65.5,237.499c-6-5.7-6-15.298,0-20.999c5.7-6,15.298-6,20.999,0L256,385.699L339.699,302
	l-61.5-61.5c-5.7-5.7-5.7-15.3,0-21.301c6-5.7,15.601-5.7,21.301,0L446.499,366.5C452.5,372.201,452.5,381.799,446.499,387.499z"/>
<path style="fill:#D3D3D8;" d="M446.499,387.499c-5.7,6-15.298,6-20.999,0L361,323.301L277.301,407l19.199,19.501
	c6,5.7,6,15.298,0,20.999c-5.7,6-15.298,6-20.999,0L256,428v-42.301L339.699,302l-61.5-61.5c-5.7-5.7-5.7-15.3,0-21.301
	c6-5.7,15.601-5.7,21.301,0L446.499,366.5C452.5,372.201,452.5,381.799,446.499,387.499z"/>
<path style="fill:#FF3636;" d="M256,0c-57.9,0-105,49.1-105,107c0,17.999,4.799,36,13.801,52.2c0.298,0.3,0.298,0.3,0.298,0.601
	c0,0,0.3,0,0.3,0.3L243.1,294.5c2.699,4.501,7.5,7.5,12.9,7.5s10.201-2.999,12.9-7.5l78.3-135.3v-0.3
	c9.001-15.599,13.8-33.6,13.8-51.9C361,49.1,313.9,0,256,0z M256,152c-24.901,0-45-20.099-45-45s20.099-46,45-46s45,21.099,45,46
	S280.901,152,256,152z"/>
<path style="fill:#F40000;" d="M361,107c0,18.3-4.799,36.301-13.801,51.899v0.3l-78.3,135.3c-2.699,4.501-7.5,7.5-12.9,7.5V152
	c24.901,0,45-20.099,45-45s-20.099-46-45-46V0C313.9,0,361,49.1,361,107z"/>
<g>
</g>
<g>
</g>
<g>
</g>
<g>
</g>
<g>
</g>
<g>
</g>
<g>
</g>
<g>
</g>
<g>
</g>
<g>
</g>
<g>
</g>
<g>
</g>
<g>
</g>
<g>
</g>
<g>
</g>
</svg>
